<?xml version="1.0" encoding="UTF-8" standalone="no"?>
<!DOCTYPE svg PUBLIC "-//W3C//DTD SVG 1.1//EN"
 "http://www.w3.org/Graphics/SVG/1.1/DTD/svg11.dtd">
<!-- Generated by graphviz version 2.36.0 (20140111.2315)
 -->
<!-- Title: G Pages: 1 -->
<svg width="848pt" height="260pt"
 viewBox="0.00 0.00 848.00 260.00" xmlns="http://www.w3.org/2000/svg" xmlns:xlink="http://www.w3.org/1999/xlink">
<g id="graph0" class="graph" transform="scale(1 1) rotate(0) translate(4 256)">
<title>G</title>
<polygon fill="white" stroke="none" points="-4,4 -4,-256 844,-256 844,4 -4,4"/>
<!-- CRegistrationDeciderOrOptimizer -->
<g id="node1" class="node"><title>CRegistrationDeciderOrOptimizer</title>
<polygon fill="none" stroke="black" points="620.5,-252 417.5,-252 417.5,-216 620.5,-216 620.5,-252"/>
<text text-anchor="middle" x="519" y="-230.3" font-family="Times,serif" font-size="14.00">CRegistrationDeciderOrOptimizer</text>
</g>
<!-- CNodeRegistrationDecider -->
<g id="node2" class="node"><title>CNodeRegistrationDecider</title>
<ellipse fill="none" stroke="black" cx="264" cy="-162" rx="106.386" ry="18"/>
<text text-anchor="middle" x="264" y="-158.3" font-family="Times,serif" font-size="14.00">CNodeRegistrationDecider</text>
</g>
<!-- CRegistrationDeciderOrOptimizer&#45;&gt;CNodeRegistrationDecider -->
<g id="edge1" class="edge"><title>CRegistrationDeciderOrOptimizer&#45;&gt;CNodeRegistrationDecider</title>
<path fill="none" stroke="black" stroke-dasharray="1,5" d="M456.946,-215.966C417.533,-205.146 366.674,-191.185 327.067,-180.313"/>
<polygon fill="black" stroke="black" points="327.824,-176.891 317.254,-177.619 325.971,-183.641 327.824,-176.891"/>
</g>
<!-- CEdgeRegistrationDecider -->
<g id="node3" class="node"><title>CEdgeRegistrationDecider</title>
<ellipse fill="none" stroke="black" cx="519" cy="-162" rx="104.937" ry="18"/>
<text text-anchor="middle" x="519" y="-158.3" font-family="Times,serif" font-size="14.00">CEdgeRegistrationDecider</text>
</g>
<!-- CRegistrationDeciderOrOptimizer&#45;&gt;CEdgeRegistrationDecider -->
<g id="edge2" class="edge"><title>CRegistrationDeciderOrOptimizer&#45;&gt;CEdgeRegistrationDecider</title>
<path fill="none" stroke="black" stroke-dasharray="1,5" d="M519,-215.697C519,-207.983 519,-198.712 519,-190.112"/>
<polygon fill="black" stroke="black" points="522.5,-190.104 519,-180.104 515.5,-190.104 522.5,-190.104"/>
</g>
<!-- CGraphSlamOptimizer -->
<g id="node4" class="node"><title>CGraphSlamOptimizer</title>
<ellipse fill="none" stroke="black" cx="748" cy="-162" rx="92.413" ry="18"/>
<text text-anchor="middle" x="748" y="-158.3" font-family="Times,serif" font-size="14.00">CGraphSlamOptimizer</text>
</g>
<!-- CRegistrationDeciderOrOptimizer&#45;&gt;CGraphSlamOptimizer -->
<g id="edge3" class="edge"><title>CRegistrationDeciderOrOptimizer&#45;&gt;CGraphSlamOptimizer</title>
<path fill="none" stroke="black" stroke-dasharray="1,5" d="M574.727,-215.966C609.942,-205.201 655.333,-191.326 690.823,-180.478"/>
<polygon fill="black" stroke="black" points="692.014,-183.774 700.554,-177.503 689.967,-177.079 692.014,-183.774"/>
</g>
<!-- CFixedIntervalsNRD -->
<g id="node5" class="node"><title>CFixedIntervalsNRD</title>
<ellipse fill="none" stroke="black" cx="85" cy="-18" rx="85.19" ry="18"/>
<text text-anchor="middle" x="85" y="-14.3" font-family="Times,serif" font-size="14.00">CFixedIntervalsNRD</text>
</g>
<!-- CNodeRegistrationDecider&#45;&gt;CFixedIntervalsNRD -->
<g id="edge4" class="edge"><title>CNodeRegistrationDecider&#45;&gt;CFixedIntervalsNRD</title>
<path fill="none" stroke="black" d="M242.763,-144.153C210.784,-118.784 150.179,-70.7059 114.107,-42.0905"/>
<polygon fill="black" stroke="black" points="115.941,-39.0782 105.932,-35.6053 111.591,-44.5622 115.941,-39.0782"/>
</g>
<!-- CICPCriteriaNRD -->
<g id="node6" class="node"><title>CICPCriteriaNRD</title>
<ellipse fill="none" stroke="black" cx="264" cy="-18" rx="75.0904" ry="18"/>
<text text-anchor="middle" x="264" y="-14.3" font-family="Times,serif" font-size="14.00">CICPCriteriaNRD</text>
</g>
<!-- CNodeRegistrationDecider&#45;&gt;CICPCriteriaNRD -->
<g id="edge5" class="edge"><title>CNodeRegistrationDecider&#45;&gt;CICPCriteriaNRD</title>
<path fill="none" stroke="black" d="M264,-143.871C264,-119.67 264,-75.2108 264,-46.3932"/>
<polygon fill="black" stroke="black" points="267.5,-46.1892 264,-36.1893 260.5,-46.1893 267.5,-46.1892"/>
</g>
<!-- CRangeScanEdgeRegistrationDecider -->
<g id="node7" class="node"><title>CRangeScanEdgeRegistrationDecider</title>
<ellipse fill="none" stroke="black" cx="519" cy="-90" rx="144.406" ry="18"/>
<text text-anchor="middle" x="519" y="-86.3" font-family="Times,serif" font-size="14.00">CRangeScanEdgeRegistrationDecider</text>
</g>
<!-- CEdgeRegistrationDecider&#45;&gt;CRangeScanEdgeRegistrationDecider -->
<g id="edge6" class="edge"><title>CEdgeRegistrationDecider&#45;&gt;CRangeScanEdgeRegistrationDecider</title>
<path fill="none" stroke="black" stroke-dasharray="1,5" d="M519,-143.697C519,-135.983 519,-126.712 519,-118.112"/>
<polygon fill="black" stroke="black" points="522.5,-118.104 519,-108.104 515.5,-118.104 522.5,-118.104"/>
</g>
<!-- CLevMarqGSO -->
<g id="node10" class="node"><title>CLevMarqGSO</title>
<ellipse fill="none" stroke="black" cx="761" cy="-18" rx="67.3907" ry="18"/>
<text text-anchor="middle" x="761" y="-14.3" font-family="Times,serif" font-size="14.00">CLevMarqGSO</text>
</g>
<!-- CGraphSlamOptimizer&#45;&gt;CLevMarqGSO -->
<g id="edge9" class="edge"><title>CGraphSlamOptimizer&#45;&gt;CLevMarqGSO</title>
<path fill="none" stroke="black" d="M749.568,-143.871C751.784,-119.67 755.854,-75.2108 758.492,-46.3932"/>
<polygon fill="black" stroke="black" points="762,-46.4667 759.426,-36.1893 755.029,-45.8285 762,-46.4667"/>
</g>
<!-- CICPCriteriaERD -->
<g id="node8" class="node"><title>CICPCriteriaERD</title>
<ellipse fill="none" stroke="black" cx="432" cy="-18" rx="74.6146" ry="18"/>
<text text-anchor="middle" x="432" y="-14.3" font-family="Times,serif" font-size="14.00">CICPCriteriaERD</text>
</g>
<!-- CRangeScanEdgeRegistrationDecider&#45;&gt;CICPCriteriaERD -->
<g id="edge7" class="edge"><title>CRangeScanEdgeRegistrationDecider&#45;&gt;CICPCriteriaERD</title>
<path fill="none" stroke="black" d="M497.94,-72.055C486.744,-63.047 472.818,-51.8419 460.652,-42.0534"/>
<polygon fill="black" stroke="black" points="462.551,-39.0893 452.566,-35.5475 458.163,-44.5432 462.551,-39.0893"/>
</g>
<!-- CLoopCloserERD -->
<g id="node9" class="node"><title>CLoopCloserERD</title>
<ellipse fill="none" stroke="black" cx="600" cy="-18" rx="75.0904" ry="18"/>
<text text-anchor="middle" x="600" y="-14.3" font-family="Times,serif" font-size="14.00">CLoopCloserERD</text>
</g>
<!-- CRangeScanEdgeRegistrationDecider&#45;&gt;CLoopCloserERD -->
<g id="edge8" class="edge"><title>CRangeScanEdgeRegistrationDecider&#45;&gt;CLoopCloserERD</title>
<path fill="none" stroke="black" d="M538.608,-72.055C548.931,-63.1336 561.748,-52.0572 572.997,-42.3361"/>
<polygon fill="black" stroke="black" points="575.575,-44.7343 580.852,-35.5475 570.998,-39.438 575.575,-44.7343"/>
</g>
</g>
</svg>
